# xmcd
#
# Track frame offsets:
#	150
#	6337
#	20289
#	41773
#	63543
#	82812
#	104507
#	120564
#	138461
#	153758
#	174945
#	189179
#	207271
#	227911
#	255720
#	274777
#	294539
#	314424
#	327103
#
# Disc length: 4637 seconds
#
# Revision: 1
# Processed by: cddbd v1.4PL0 Copyright (c) Steve Scherf et al.
# Submitted via: EasyCDDAExtractor 5.0.6
#
DISCID=03121b13
DTITLE=Petey Pablo - Diary of a Sinner: 1st Entry
DYEAR=1900
DGENRE=
TTITLE0=Intro
TTITLE1=Petey Pablo
TTITLE2=Raise Up
TTITLE3=I
TTITLE4=I Told Y'all
TTITLE5=Didn't I
TTITLE6=La Di da da Da
TTITLE7=Funroom
TTITLE8=Y'all Ain't Ready (Come On)
TTITLE9=Do Dat
TTITLE10=Live Debaco
TTITLE11=919
TTITLE12=Fool for Love
TTITLE13=Test of My Faith
TTITLE14=Truth About Me
TTITLE15=Diary of a Sinner
TTITLE16=My Testimony
TTITLE17=Raise Up
TTITLE18=Raise Up (USA Flag Remix)
EXTD=
EXTT0=
EXTT1=
EXTT2=
EXTT3=
EXTT4=
EXTT5=
EXTT6=
EXTT7=
EXTT8=
EXTT9=
EXTT10=
EXTT11=
EXTT12=
EXTT13=
EXTT14=
EXTT15=
EXTT16=
EXTT17=
EXTT18=
PLAYORDER=
